<svg width="24" height="24" viewBox="0 0 24 24" fill="none" xmlns="http://www.w3.org/2000/svg">
<g opacity="0.6">
<path d="M13.6312 10.0078C13.4062 9.60938 12.9844 9.47812 12.4688 9.47812V9.46875C12.1875 9.46875 11.7984 9.52969 11.4094 9.60469C10.8516 9.7125 10.4859 9.9375 10.4859 9.9375C10.4859 9.9375 10.6547 11.2172 10.4906 12.6797C10.3266 14.1422 10.1203 14.6719 10.1203 14.6719C10.1203 14.6719 10.3687 15.2391 11.9953 15.375C12.1781 15.3891 12.3516 15.3984 12.5109 15.3984C13.6594 15.3984 14.2172 15.0563 14.2172 15.0563C14.2172 15.0563 14.3719 14.8031 14.4188 14.0203C14.5078 12.5109 14.0906 10.8094 13.6312 10.0078V10.0078ZM9.64219 9.7875C8.61094 7.90313 5.60156 5.25 3.95625 5.25C2.71406 5.25 1.5 8.46094 1.5 12C1.5 15.5391 2.57812 18.75 3.91406 18.75C5.47969 18.75 9.09375 15 9.09375 15C9.09375 15 9.36094 14.4094 9.55781 13.425L9.64219 12.9375C9.675 12.7172 9.70312 12.4828 9.72187 12.2344C9.73594 12.0703 9.74531 11.9156 9.75 11.7703L9.76406 11.3109C9.79688 10.5609 9.64219 9.7875 9.64219 9.7875V9.7875ZM20.0438 5.25C18.3375 5.25 15.525 7.89844 14.4984 9.7875L14.4609 9.85312C14.4609 9.85312 14.5266 9.97031 14.55 10.0125C14.7094 10.2938 14.8641 10.6828 14.9906 11.1375L15.1266 11.6859C15.2297 12.1641 15.3 12.6797 15.3234 13.1953L15.3328 13.6172C15.3328 13.7531 15.3281 13.8844 15.3187 14.0156C15.2719 14.7984 15.1031 15.0516 15.1031 15.0516C15.4594 15.5438 18.3375 18.75 20.0812 18.75C21.4172 18.75 22.4953 15.5391 22.4953 12C22.4953 8.46094 21.2859 5.25 20.0438 5.25V5.25Z" fill="black"/>
</g>
</svg>
