<svg width="24" height="24" viewBox="0 0 24 24" fill="none" xmlns="http://www.w3.org/2000/svg">
<g opacity="0.6">
<path d="M19.5 9.19687C18.8531 7.75312 17.2031 4.875 14.8125 4.875H9.1875C6.79688 4.875 5.2125 7.65937 4.5 9.19687C3.375 10.275 2.25 11.3391 2.25 13.1719V16.7344C2.25 16.9078 2.37188 17.0625 2.54063 17.1C3.23906 17.2594 5.45625 17.5781 12 17.5781C18.5438 17.5781 20.7609 17.2594 21.4594 17.1C21.6281 17.0625 21.75 16.9078 21.75 16.7344V13.1719C21.75 11.3438 20.7047 10.2141 19.5 9.19687ZM8.90625 6H15.0938C16.9922 6 18 8.8125 18 9.28125H6C6 8.8125 7.26562 6 8.90625 6ZM5.25 15.5484C4.42031 15.5484 3.75 14.8781 3.75 14.0484C3.75 13.2188 4.42031 12.5484 5.25 12.5484C6.07969 12.5484 6.75 13.2188 6.75 14.0484C6.75 14.8734 6.07969 15.5484 5.25 15.5484ZM15.375 14.0625C15.375 14.475 15.0375 14.8125 14.625 14.8125H9.375C8.9625 14.8125 8.625 14.475 8.625 14.0625C8.625 13.65 8.9625 13.3125 9.375 13.3125H14.625C15.0375 13.3125 15.375 13.65 15.375 14.0625ZM18.75 15.5625C17.9203 15.5625 17.25 14.8922 17.25 14.0625C17.25 13.2328 17.9203 12.5625 18.75 12.5625C19.5797 12.5625 20.25 13.2328 20.25 14.0625C20.25 14.8922 19.5797 15.5625 18.75 15.5625ZM7.5 18C5.25469 18 3 17.7656 3 17.7656C3 18.5625 2.98594 19.125 3.28125 19.125H7.26562C7.56094 19.125 7.5 18.5063 7.5 18ZM16.5 18C18.75 18 21 17.7656 21 17.7656C21 18.5156 21.0938 19.125 20.7656 19.125H16.7344C16.4203 19.125 16.5 18.4922 16.5 18Z" fill="black"/>
</g>
</svg>
