<svg width="24" height="24" viewBox="0 0 24 24" fill="none" xmlns="http://www.w3.org/2000/svg">
<g opacity="0.6">
<path d="M20.25 6.375H16.2984C16.8797 5.85938 17.25 5.12812 17.25 4.3125C17.25 2.76094 15.9234 1.5 14.2922 1.5C13.3266 1.5 12.5156 1.95469 12 2.78438C11.4844 1.95469 10.6734 1.5 9.70781 1.5C8.07656 1.5 6.75 2.76094 6.75 4.3125C6.75 5.12812 7.11563 5.85938 7.70156 6.375H3.75C2.92031 6.375 2.25 7.04531 2.25 7.875V8.8125C2.25 8.91563 2.33437 9 2.4375 9H21.5625C21.6656 9 21.75 8.91563 21.75 8.8125V7.875C21.75 7.04531 21.0797 6.375 20.25 6.375ZM14.2922 2.8125C15.1641 2.8125 15.8719 3.48281 15.8719 4.3125C15.8719 5.14219 15.1641 5.8125 14.2922 5.8125H12.7125C12.7125 3.5625 13.4203 2.8125 14.2922 2.8125ZM9.70781 2.8125C10.5797 2.8125 11.2875 3.5625 11.2875 5.8125H9.70781C8.83594 5.8125 8.12812 5.14219 8.12812 4.3125C8.12812 3.48281 8.83594 2.8125 9.70781 2.8125ZM3 10.5938V21C3 21.825 3.675 22.5 4.5 22.5H11.3438V10.2188H3.375C3.16875 10.2188 3 10.3875 3 10.5938ZM20.625 10.2188H12.6562V22.5H19.5C20.325 22.5 21 21.825 21 21V10.5938C21 10.3875 20.8313 10.2188 20.625 10.2188Z" fill="black"/>
</g>
</svg>
