<svg width="24" height="24" viewBox="0 0 24 24" fill="none" xmlns="http://www.w3.org/2000/svg">
<g opacity="0.6">
<path d="M20.25 6H16.3125V4.5C16.3125 3.675 15.6375 3 14.8125 3H9.1875C8.3625 3 7.6875 3.675 7.6875 4.5V6H3.75C2.92031 6 2.25 6.67031 2.25 7.5V19.5C2.25 20.3297 2.92031 21 3.75 21H20.25C21.0797 21 21.75 20.3297 21.75 19.5V7.5C21.75 6.67031 21.0797 6 20.25 6ZM9 4.6875C9 4.48125 9.16875 4.3125 9.375 4.3125H14.625C14.8313 4.3125 15 4.48125 15 4.6875V6H9V4.6875ZM15 14.25H12.75V16.5C12.75 16.9125 12.4125 17.25 12 17.25C11.5875 17.25 11.25 16.9125 11.25 16.5V14.25H9C8.5875 14.25 8.25 13.9125 8.25 13.5C8.25 13.0875 8.5875 12.75 9 12.75H11.25V10.5C11.25 10.0875 11.5875 9.75 12 9.75C12.4125 9.75 12.75 10.0875 12.75 10.5V12.75H15C15.4125 12.75 15.75 13.0875 15.75 13.5C15.75 13.9125 15.4125 14.25 15 14.25Z" fill="black"/>
</g>
</svg>
