<svg width="24" height="24" viewBox="0 0 24 24" fill="none" xmlns="http://www.w3.org/2000/svg">
<g opacity="0.6">
<path d="M19.5 6.61406C18.6141 6.79688 17.775 6.99844 16.9828 7.21406C15.0844 7.72969 13.4437 8.38125 12.0422 9.00469C11.1375 9.40781 10.8141 9.58594 9.62812 10.2188C6.89062 11.6672 5.25 13.5469 5.25 16.3594C5.25 19.5375 7.85625 21.75 12 21.75C16.1438 21.75 18.75 19.35 18.75 16.1719C18.75 12.9984 15.8906 10.7953 19.5 6.61406ZM6.34687 11.3344C6.94687 10.8422 7.80938 10.2141 8.97656 9.53437C9.27656 9.35625 9.6 9.17812 9.94219 9C10.4859 8.71406 11.0437 8.44219 11.6203 8.18438C11.1937 7.71094 10.5844 7.28906 9.90469 6.91875C7.62188 5.67656 4.5 5.03438 4.5 5.03438C6.44531 7.08281 6.59062 9.55781 6.34687 11.3344ZM16.5 3.64219C16.5 3.64219 13.0406 3.6 10.6031 6.22031C10.6031 6.22031 11.9016 7.03125 12.6047 7.73438C14.3484 7.00312 16.4625 6.39375 18.0047 6.04688C17.7 5.02969 16.5 3.64219 16.5 3.64219V3.64219ZM11.2359 4.54688C9.85781 2.78906 8.25 2.25 8.25 2.25C7.53281 3.225 7.11094 4.03125 6.89062 4.67344C7.87969 4.95 8.60156 5.25 9.81562 5.83125C10.2609 5.33438 10.6641 4.93594 11.2359 4.54688V4.54688Z" fill="black"/>
</g>
</svg>
