<svg width="24" height="24" viewBox="0 0 24 24" fill="none" xmlns="http://www.w3.org/2000/svg">
<g opacity="0.6">
<path d="M18.1828 17.5172H20.4891L21.3094 13.9828H18.1828V17.5172ZM18.1828 21H18.2062C19.0828 21 19.7719 20.4141 20.0016 19.6172L20.2828 18.4031H18.1828V21ZM12.4406 18.3984H17.3016V21H12.4406V18.3984ZM3.51562 17.5172H5.8125V13.9828H2.69531L3.51562 17.5172ZM6.69844 9H11.5594V13.1016H6.69844V9ZM12.4406 9H17.3016V13.1016H12.4406V9ZM4.00781 19.6078C4.22812 20.4047 4.91719 21 5.79375 21H5.81719V18.3984H3.72188L4.00781 19.6078ZM6.69844 18.3984H11.5594V21H6.69844V18.3984ZM12.4406 13.9828H17.3016V17.5172H12.4406V13.9828ZM6.69844 13.9828H11.5594V17.5172H6.69844V13.9828Z" fill="black"/>
<path d="M21.75 9H19.5047V4.5C19.5047 3.675 18.8297 3 18.0047 3H5.9953C5.1703 3 4.4953 3.675 4.4953 4.5V9H2.24999C1.76718 9 1.41093 9.45 1.51874 9.91875L2.44218 13.1016H5.81249V4.96875C5.81249 4.60781 6.1078 4.3125 6.46874 4.3125H17.5312C17.8922 4.3125 18.1875 4.60781 18.1875 4.96875V13.1016H21.5625L22.4812 9.91875C22.5891 9.45 22.2328 9 21.75 9Z" fill="black"/>
</g>
</svg>
