<svg width="24" height="24" viewBox="0 0 24 24" fill="none" xmlns="http://www.w3.org/2000/svg">
<g opacity="0.6">
<path d="M4.54218 12.6704V17.0157C4.54218 17.1516 4.61249 17.2735 4.72968 17.3438L10.9172 20.9016C11.1656 21.0469 11.4797 20.8641 11.4797 20.5735V16.1766C11.4797 16.0407 11.4094 15.9188 11.2922 15.8485L5.10468 12.3375C4.85155 12.2016 4.54218 12.3844 4.54218 12.6704ZM13.1672 20.9016L19.3594 17.3438C19.4766 17.2782 19.5469 17.1516 19.5469 17.0157V12.6235C19.5469 12.3329 19.2375 12.1547 18.9844 12.2954L12.7969 15.8532C12.6797 15.9188 12.6094 16.0454 12.6094 16.1813V20.5782C12.6047 20.8641 12.9187 21.0469 13.1672 20.9016Z" fill="black"/>
<path d="M11.6719 3.05156L1.7344 8.85469C1.48127 9 1.48127 9.36094 1.7344 9.50625L11.6719 15.0281C11.9016 15.1594 12.1875 15.1594 12.4172 15.0281L21.2344 9.97969C21.4828 9.83437 21.5625 10.0172 21.5625 10.3078V17.4984C21.5625 17.8172 21.7453 17.9672 22.0781 17.9672C22.2844 17.9672 22.5469 17.8172 22.5469 17.4984V9.44531C22.5469 9.30937 22.4766 9.1875 22.3594 9.11719L12.4172 3.05156C12.1875 2.92031 11.9016 2.92031 11.6719 3.05156Z" fill="black"/>
</g>
</svg>
