<svg width="24" height="24" viewBox="0 0 24 24" fill="none" xmlns="http://www.w3.org/2000/svg">
<g opacity="0.6">
<path d="M21.7734 11.2922H21.4828C21.3281 10.3032 20.8594 9.3938 20.1469 8.70474C19.3359 7.92661 18.2812 7.49536 17.175 7.49536C16.2141 7.49536 15.3 7.80942 14.5406 8.40474C13.8938 8.91099 13.4063 9.5813 13.1109 10.3594C12.7828 10.1438 12.3891 10.0172 12 10.0172C11.6109 10.0172 11.2172 10.1391 10.8891 10.3594C10.5984 9.5813 10.1109 8.91099 9.45938 8.40474C8.7 7.80942 7.78594 7.49536 6.825 7.49536C5.71875 7.49536 4.66406 7.92192 3.85312 8.69536C3.14062 9.3938 2.67188 10.3079 2.51719 11.2969H2.22656C1.85156 11.2969 1.54688 11.611 1.54688 12C1.54688 12.3891 1.85156 12.7032 2.22656 12.7032H2.51719C2.67188 13.6969 3.14062 14.6063 3.85312 15.2954C4.66406 16.0735 5.71875 16.5047 6.825 16.5047C9.22969 16.5047 11.1891 14.4891 11.1891 12.0094V12C11.1891 11.7235 11.5125 11.3016 12 11.3016C12.4875 11.3016 12.8109 11.7235 12.8109 12V12.0047C12.8109 14.4844 14.7703 16.5 17.175 16.5C18.2859 16.5 19.3406 16.0735 20.1469 15.2907C20.8594 14.6016 21.3281 13.6875 21.4828 12.6938H21.7734C22.1484 12.6938 22.4531 12.3797 22.4531 11.9907C22.4531 11.611 22.1484 11.2922 21.7734 11.2922Z" fill="black"/>
</g>
</svg>
