<svg width="24" height="24" viewBox="0 0 24 24" fill="none" xmlns="http://www.w3.org/2000/svg">
<g opacity="0.6">
<path d="M20.4 2.25H14.6391C14.4609 2.25 14.2875 2.32031 14.1609 2.44688L2.64375 13.9641C2.11875 14.4891 2.11875 15.3469 2.64375 15.8719L8.12812 21.3563C8.65312 21.8813 9.51094 21.8813 10.0359 21.3563L21.5484 9.84375C21.675 9.71719 21.7453 9.54375 21.7453 9.36563V3.6C21.75 2.85469 21.1453 2.25 20.4 2.25ZM18.1641 7.49063C17.2078 7.59375 16.4109 6.79219 16.5094 5.83594C16.5844 5.14219 17.1422 4.57969 17.8359 4.50937C18.7922 4.40625 19.5891 5.20781 19.4906 6.16406C19.4156 6.85781 18.8578 7.41563 18.1641 7.49063Z" fill="black"/>
</g>
</svg>
