<svg width="24" height="24" viewBox="0 0 24 24" fill="none" xmlns="http://www.w3.org/2000/svg">
<g opacity="0.6">
<path d="M12.8953 2.7C12.4547 2.42344 11.8031 2.25 11.1187 2.25C10.4484 2.25 9.69841 2.36719 8.92966 2.68125C6.74998 3.57188 5.46091 4.80937 5.1281 5.1375C4.79998 5.46562 4.3406 5.98125 4.05466 6.38437C3.76873 6.79219 4.14373 7.36875 3.76873 7.74375C3.39373 8.11875 2.61091 7.74375 2.61091 7.74375C2.54529 7.74375 2.47498 7.76719 2.4281 7.81875L0.829663 9.40781C0.726538 9.50625 0.726538 9.675 0.829663 9.77344L3.80623 12.7313C3.85779 12.7828 3.92341 12.8063 3.98904 12.8063C4.05466 12.8063 4.12498 12.7828 4.17185 12.7313L5.7281 11.1C5.83123 11.0016 5.83123 10.8328 5.7281 10.7344C5.7281 10.7344 5.47966 10.4906 5.16091 10.1719C4.84216 9.85313 5.19841 9.26719 5.40935 9.075C5.62029 8.88281 5.9531 8.75625 6.39841 8.75625C6.59998 8.75625 6.74529 8.78906 6.93279 8.84063C7.50466 9 8.14216 9.58594 9.31873 10.7531L9.13591 11.0578C9.0281 11.2359 9.09373 11.4469 9.19685 11.5453C9.19685 11.5453 8.96248 11.3156 9.81091 12.1594L12.1547 9.94687C11.2593 9.06094 11.475 9.28594 11.475 9.28594C11.4094 9.22031 11.2969 9.17813 11.1797 9.17813C11.114 9.17813 11.0437 9.19219 10.9828 9.225L10.7203 9.36563C9.40779 8.0625 9.0656 7.48125 9.11248 6.47344C9.16404 5.42344 9.68904 4.73438 10.5422 4.00313C11.7 3.01406 13.3828 3.29062 13.3828 3.29062C13.7578 3.28594 13.1859 2.8875 12.8953 2.7ZM21.6797 18.7453C21.6797 18.7453 18.45 16.0641 15.5765 13.3219L13.3406 15.6937C16.0828 18.5344 18.7265 21.675 18.7265 21.675C18.7781 21.7266 18.8437 21.75 18.9094 21.75C18.975 21.75 19.0453 21.7266 19.0922 21.675L21.675 19.1109C21.7781 19.0125 21.7781 18.8438 21.6797 18.7453Z" fill="black"/>
<path d="M22.4625 5.87341L20.0063 8.33904L17.6109 7.9031L17.1797 5.50779L19.6359 3.04216C19.1156 2.52185 18.3797 2.26404 17.8078 2.26404C17.775 2.26404 17.7422 2.26404 17.7141 2.26873C17.1281 2.29685 15.8766 2.62966 14.9063 3.66091C13.9688 4.64998 12.9797 6.50154 13.8563 8.54998C13.9594 8.79841 14.0766 9.12185 13.7297 9.47341C13.6594 9.53904 13.2656 9.91404 12.675 10.4719C12.5063 10.6312 12.3281 10.8 12.1313 10.9875C11.7563 11.3437 11.3297 11.7469 10.875 12.1687C10.6969 12.3375 10.5141 12.5062 10.3313 12.6844C7.65939 15.2062 4.38282 18.2859 4.38282 18.2859C3.53907 19.0125 3.60001 20.3531 4.37814 21.1359C4.77657 21.5297 5.31564 21.7359 5.84532 21.7359C6.36095 21.7359 6.87189 21.539 7.22814 21.1219C7.22814 21.1219 10.2984 17.85 12.8203 15.1734C12.9938 14.9859 13.1672 14.8078 13.3359 14.625C13.7719 14.1609 14.1797 13.7297 14.5453 13.3453C14.7281 13.1484 14.9016 12.9656 15.0609 12.8015C15.6 12.2297 15.9656 11.8453 16.0453 11.7703C16.2328 11.5875 16.4063 11.5312 16.5656 11.5312C16.7203 11.5312 16.8563 11.5875 16.9688 11.6437C17.4328 11.8828 17.9531 11.9859 18.4875 11.9859C19.7391 11.9859 21.0656 11.4047 21.8672 10.6031C23.0109 9.45935 23.2172 8.35779 23.2547 7.7906C23.2828 7.23748 23.0859 6.49685 22.4625 5.87341V5.87341ZM6.44064 19.9734C6.18282 20.2265 5.76564 20.2265 5.51251 19.9734C5.25939 19.7156 5.25939 19.2984 5.51251 19.0453C5.77032 18.7922 6.18751 18.7922 6.44064 19.0453C6.69376 19.3031 6.69376 19.7203 6.44064 19.9734Z" fill="black"/>
</g>
</svg>
